<svg width="32" height="31" viewBox="0 0 32 31" fill="none" xmlns="http://www.w3.org/2000/svg">
<path d="M21.3003 2.4439L19.1894 3.59838L21.3003 4.75287L22.4548 6.86376L23.6093 4.75287L25.7202 3.59838L23.6093 2.4439L22.4548 0.333008L21.3003 2.4439ZM13.2707 3.64716C11.3347 4.03999 9.52792 4.91154 8.0154 6.18224C6.50288 7.45294 5.33277 9.0823 4.61194 10.9215C3.8911 12.7608 3.6425 14.7513 3.88883 16.7113C4.13516 18.6714 4.86857 20.5385 6.0221 22.1421C7.17563 23.7458 8.71252 25.035 10.4924 25.8919C12.2724 26.7488 14.2386 27.1462 16.2116 27.0477C18.1846 26.9493 20.1015 26.3581 21.7872 25.3283C23.473 24.2985 24.8739 22.8627 25.8621 21.1522C22.3516 21.1249 18.9943 19.7112 16.5216 17.2191C14.049 14.7271 12.6615 11.3588 12.6617 7.84825C12.6617 6.3996 12.8553 4.98495 13.2707 3.64716ZM0.835938 15.2393C0.835938 7.07514 7.4539 0.457178 15.6181 0.457178H18.1813L16.8982 2.6745C16.0423 4.15271 15.6181 5.91179 15.6181 7.84825C15.6179 9.37616 15.956 10.8852 16.6082 12.2669C17.2605 13.6486 18.2106 14.8687 19.3903 15.8396C20.5701 16.8105 21.9503 17.508 23.4316 17.8822C24.913 18.2564 26.4589 18.2978 27.9582 18.0036L30.4446 17.5202L29.6419 19.9238C27.6833 25.7893 22.1474 30.0215 15.6181 30.0215C7.4539 30.0215 0.835938 23.4035 0.835938 15.2393ZM28.1829 6.98497L29.534 9.45359L32.0026 10.8047L29.534 12.1558L28.1829 14.6244L26.8318 12.1558L24.3632 10.8047L26.8318 9.45359L28.1829 6.98497Z" fill="#EFE5D7"/>
</svg>
